<svg width="36" height="39" viewBox="0 0 36 39" fill="none" xmlns="http://www.w3.org/2000/svg">
<path opacity="0.5" d="M34.3228 26.8588V36.2523C34.3228 36.7904 34.109 37.3065 33.7285 37.687C33.348 38.0675 32.8319 38.2813 32.2938 38.2813H2.2878C2.02109 38.2817 1.75691 38.2295 1.51038 38.1277C1.26385 38.0259 1.03981 37.8765 0.851064 37.6881C0.662323 37.4996 0.512581 37.2758 0.410419 37.0295C0.308257 36.7831 0.255676 36.519 0.255676 36.2523V26.8588C0.255676 26.3198 0.469775 25.803 0.850873 25.4219C1.23197 25.0408 1.74885 24.8267 2.2878 24.8267H9.92472C10.0189 24.881 10.0973 24.959 10.1522 25.0529C10.2071 25.1468 10.2366 25.2533 10.2378 25.3621V32.0283C10.2378 32.1894 10.3018 32.344 10.4157 32.4579C10.5297 32.5718 10.6842 32.6358 10.8453 32.6358H22.9535C23.0348 32.6383 23.1159 32.6245 23.1917 32.5951C23.2676 32.5657 23.3368 32.5213 23.3952 32.4646C23.4536 32.408 23.5001 32.3402 23.5318 32.2652C23.5635 32.1903 23.5798 32.1097 23.5797 32.0283V25.3777C23.5809 25.269 23.6105 25.1624 23.6654 25.0685C23.7203 24.9746 23.7987 24.8967 23.8929 24.8423H32.3063C32.8398 24.8464 33.3504 25.0602 33.7276 25.4375C34.1049 25.8147 34.3187 26.3252 34.3228 26.8588Z" fill="white"/>
<path d="M34.5907 26.8588V36.2523C34.5899 36.7907 34.3754 37.3068 33.9944 37.6872C33.6134 38.0676 33.097 38.2813 32.5586 38.2813H2.54949C2.01108 38.2813 1.49466 38.0676 1.11365 37.6872C0.732643 37.3068 0.518194 36.7907 0.517365 36.2523V26.8588C0.518193 26.3201 0.732541 25.8037 1.11346 25.4228C1.49438 25.0419 2.01079 24.8275 2.54949 24.8267H10.1864C10.2806 24.881 10.359 24.959 10.4139 25.0529C10.4688 25.1468 10.4983 25.2533 10.4995 25.3621V32.0283C10.4995 32.1894 10.5635 32.344 10.6774 32.4579C10.7914 32.5718 10.9459 32.6358 11.107 32.6358H23.2152C23.3763 32.6358 23.5308 32.5718 23.6447 32.4579C23.7586 32.344 23.8226 32.1894 23.8226 32.0283V25.3777C23.8238 25.269 23.8533 25.1624 23.9082 25.0685C23.9631 24.9746 24.0416 24.8967 24.1358 24.8423H32.5492C33.0868 24.8407 33.6033 25.0518 33.9858 25.4296C34.3683 25.8074 34.5858 26.3212 34.5907 26.8588Z" fill="white"/>
<path d="M34.853 25.0121V34.4056C34.8534 34.6726 34.8012 34.937 34.6992 35.1838C34.5972 35.4305 34.4475 35.6547 34.2587 35.8435C34.07 36.0322 33.8458 36.1819 33.599 36.2839C33.3523 36.3859 33.0879 36.4381 32.8209 36.4377H2.81178C2.54507 36.4377 2.28098 36.3852 2.03461 36.283C1.78824 36.1808 1.56442 36.0311 1.37596 35.8423C1.18751 35.6536 1.03811 35.4296 0.936332 35.183C0.83455 34.9365 0.782382 34.6723 0.782794 34.4056V25.0121C0.782382 24.7454 0.83455 24.4812 0.936332 24.2347C1.03811 23.9882 1.18751 23.7641 1.37596 23.5754C1.56442 23.3866 1.78824 23.2369 2.03461 23.1348C2.28098 23.0326 2.54507 22.98 2.81178 22.98H10.4518C10.5469 23.0326 10.626 23.1098 10.6811 23.2034C10.7362 23.297 10.7651 23.4037 10.765 23.5123V30.1504C10.7624 30.2314 10.7762 30.3122 10.8054 30.3879C10.8346 30.4636 10.8787 30.5326 10.935 30.591C10.9913 30.6493 11.0588 30.6958 11.1334 30.7277C11.2079 30.7596 11.2882 30.7762 11.3693 30.7766H23.4869C23.648 30.7766 23.8025 30.7126 23.9164 30.5987C24.0303 30.4848 24.0943 30.3303 24.0943 30.1692V23.5123C24.0942 23.4037 24.1231 23.297 24.1782 23.2034C24.2333 23.1098 24.3124 23.0326 24.4075 22.98H32.8178C33.085 22.9792 33.3498 23.0312 33.5969 23.133C33.844 23.2347 34.0685 23.3843 34.2576 23.5732C34.4468 23.762 34.5967 23.9863 34.6989 24.2333C34.801 24.4802 34.8534 24.7449 34.853 25.0121Z" stroke="#4D2C19" stroke-width="1.56558" stroke-miterlimit="10"/>
<path d="M30.4842 8.47295V20.5843C30.4847 20.6637 30.4693 20.7425 30.4391 20.8161C30.4089 20.8896 30.3644 20.9563 30.3082 21.0125C30.252 21.0687 30.1852 21.1132 30.1117 21.1435C30.0382 21.1737 29.9594 21.189 29.8799 21.1886H23.2262C23.1466 21.1886 23.0677 21.2043 22.9942 21.2349C22.9207 21.2655 22.8539 21.3103 22.7978 21.3667C22.7416 21.4232 22.6972 21.4902 22.667 21.5638C22.6368 21.6375 22.6215 21.7164 22.6219 21.796V28.4467C22.6219 28.6078 22.5579 28.7622 22.444 28.8762C22.33 28.9901 22.1755 29.0541 22.0144 29.0541H9.90309C9.82332 29.0541 9.74432 29.0384 9.67062 29.0078C9.59692 28.9773 9.52997 28.9326 9.47356 28.8762C9.41716 28.8198 9.3724 28.7528 9.34187 28.6791C9.31134 28.6054 9.29564 28.5264 9.29564 28.4467V21.796C9.29605 21.7164 9.28072 21.6375 9.25054 21.5638C9.22035 21.4902 9.1759 21.4232 9.11974 21.3667C9.06358 21.3103 8.99684 21.2655 8.92332 21.2349C8.84979 21.2043 8.77095 21.1886 8.69133 21.1886H2.03759C1.95812 21.189 1.87934 21.1737 1.80583 21.1435C1.73233 21.1132 1.66555 21.0687 1.60935 21.0125C1.55315 20.9563 1.50864 20.8896 1.47842 20.8161C1.4482 20.7425 1.43287 20.6637 1.43328 20.5843V8.47295C1.43287 8.39333 1.4482 8.31439 1.47838 8.24071C1.50857 8.16703 1.553 8.10005 1.60916 8.0436C1.66532 7.98715 1.73208 7.94238 1.8056 7.91181C1.87913 7.88124 1.95797 7.86548 2.03759 7.86548H8.69133C8.77095 7.86549 8.84979 7.84976 8.92332 7.8192C8.99684 7.78863 9.06358 7.74386 9.11974 7.68741C9.1759 7.63096 9.22035 7.56394 9.25054 7.49026C9.28072 7.41658 9.29605 7.33768 9.29564 7.25806V0.607466C9.29564 0.527695 9.31134 0.448697 9.34187 0.374998C9.3724 0.3013 9.41716 0.234331 9.47356 0.177924C9.52997 0.121518 9.59692 0.0767759 9.67062 0.0462489C9.74432 0.0157219 9.82332 0 9.90309 0H22.0144C22.1755 0 22.33 0.0640062 22.444 0.177924C22.5579 0.291843 22.6219 0.446361 22.6219 0.607466V7.25806C22.6215 7.33768 22.6368 7.41658 22.667 7.49026C22.6972 7.56394 22.7416 7.63096 22.7978 7.68741C22.8539 7.74386 22.9207 7.78863 22.9942 7.8192C23.0677 7.84976 23.1466 7.86549 23.2262 7.86548H29.8799C29.9596 7.86548 30.0384 7.88124 30.1119 7.91181C30.1854 7.94238 30.2522 7.98715 30.3084 8.0436C30.3645 8.10005 30.409 8.16703 30.4391 8.24071C30.4693 8.31439 30.4847 8.39333 30.4842 8.47295Z" fill="white"/>
<path d="M31.9597 10.1886V22.2999C31.9589 22.4605 31.8945 22.6142 31.7807 22.7274C31.6669 22.8406 31.5128 22.9042 31.3522 22.9042H24.7017C24.5408 22.905 24.3868 22.9693 24.273 23.0831C24.1593 23.1968 24.095 23.3508 24.0942 23.5117V30.1497C24.0942 30.2295 24.0785 30.3085 24.048 30.3822C24.0174 30.4559 23.9727 30.5229 23.9163 30.5793C23.8599 30.6357 23.7929 30.6804 23.7192 30.711C23.6455 30.7415 23.5665 30.7572 23.4868 30.7572H11.3691C11.2894 30.7572 11.2104 30.7415 11.1367 30.711C11.063 30.6804 10.996 30.6357 10.9396 30.5793C10.8832 30.5229 10.8385 30.4559 10.8079 30.3822C10.7774 30.3085 10.7617 30.2295 10.7617 30.1497V23.5117C10.7619 23.4031 10.7329 23.2964 10.6778 23.2028C10.6228 23.1092 10.5436 23.032 10.4486 22.9794C10.3591 22.931 10.2591 22.9052 10.1574 22.9042H3.50991C3.34935 22.9042 3.19531 22.8406 3.08148 22.7274C2.96765 22.6142 2.90329 22.4605 2.90247 22.2999V10.1886C2.90246 10.1089 2.91819 10.0301 2.94875 9.9566C2.97932 9.88307 3.02411 9.81629 3.08056 9.76013C3.13701 9.70398 3.20399 9.65952 3.27767 9.62934C3.35136 9.59915 3.43029 9.58382 3.50991 9.58423H10.1605C10.2403 9.58423 10.3193 9.56855 10.393 9.53802C10.4667 9.5075 10.5336 9.46276 10.59 9.40635C10.6464 9.34994 10.6912 9.28297 10.7217 9.20927C10.7522 9.13558 10.768 9.05658 10.768 8.97681V2.32308C10.7688 2.16252 10.8331 2.00881 10.947 1.89557C11.0608 1.78232 11.2148 1.71875 11.3754 1.71875H23.4868C23.6473 1.71875 23.8013 1.78232 23.9152 1.89557C24.029 2.00881 24.0934 2.16252 24.0942 2.32308V8.97681C24.0942 9.05658 24.1099 9.13558 24.1404 9.20927C24.171 9.28297 24.2157 9.34994 24.2721 9.40635C24.3285 9.46276 24.3955 9.5075 24.4692 9.53802C24.5429 9.56855 24.6219 9.58423 24.7017 9.58423H31.3522C31.4319 9.58382 31.5108 9.59915 31.5845 9.62934C31.6581 9.65952 31.7251 9.70398 31.7816 9.76013C31.838 9.81629 31.8828 9.88307 31.9134 9.9566C31.944 10.0301 31.9597 10.1089 31.9597 10.1886Z" stroke="#4D2C19" stroke-width="1.56558" stroke-miterlimit="10"/>
</svg>
