<svg width="35" height="40" viewBox="0 0 35 40" fill="none" xmlns="http://www.w3.org/2000/svg">
<path d="M27.4704 10.1449C27.4677 12.3856 26.7785 14.5717 25.4956 16.4088C24.2128 18.246 22.3978 19.6459 20.2952 20.4202C18.1925 21.1945 15.9031 21.306 13.7351 20.7397C11.5672 20.1733 9.62481 18.9563 8.16953 17.2525C6.69847 14.9054 6.17033 12.0885 6.69127 9.36792C7.21221 6.64734 8.74361 4.22479 10.9777 2.58715C13.2117 0.94952 15.9829 0.218189 18.7341 0.540174C21.4853 0.862159 24.0127 2.21358 25.8083 4.32282C26.9015 6.0674 27.4778 8.08614 27.4704 10.1449Z" fill="white"/>
<path d="M28.4124 11.4304C28.412 14.0038 27.5061 16.495 25.8535 18.4676C24.2008 20.4402 21.9067 21.7683 19.3732 22.2194C16.8396 22.6704 14.2281 22.2156 11.9962 20.9346C9.76432 19.6535 8.05434 17.628 7.16585 15.2129C6.27737 12.7977 6.26704 10.147 7.13667 7.72496C8.0063 5.30296 9.70044 3.26417 11.9223 1.96579C14.1441 0.667421 16.752 0.192265 19.289 0.623549C21.826 1.05483 24.1303 2.36505 25.7983 4.32469C27.4859 6.30763 28.4126 8.82655 28.4124 11.4304Z" stroke="#4D2C19" stroke-width="0.936934" stroke-miterlimit="10"/>
<path opacity="0.5" d="M24.3853 11.4736C23.6939 15.3019 20.3097 18.0322 16.5863 17.8973C13.1609 17.7755 10.1627 15.2588 9.39813 11.7791L24.3853 11.4736Z" fill="white"/>
<path d="M24.901 12.5C24.2095 16.3302 20.8253 19.0585 17.1019 18.9236C13.6765 18.8018 10.6783 16.2871 9.91376 12.8073L24.901 12.5Z" stroke="#4D2C19" stroke-width="0.936934" stroke-miterlimit="10" stroke-linecap="round"/>
<path d="M12.8354 23.557C14.1783 25.5558 15.5213 27.5583 16.8642 29.5646L21.1554 23.3809H27.2867C27.2867 23.3809 32.6122 24.8144 32.6647 32.411V36.8577H0.823914L0.902619 30.1118C0.902619 30.1118 1.28676 24.1154 6.69849 23.5533L12.8354 23.557Z" fill="white"/>
<path opacity="0.5" d="M25.5928 35.5612C27.3356 35.5612 28.7484 34.1484 28.7484 32.4056C28.7484 30.6628 27.3356 29.25 25.5928 29.25C23.85 29.25 22.4372 30.6628 22.4372 32.4056C22.4372 34.1484 23.85 35.5612 25.5928 35.5612Z" fill="white"/>
<path d="M7.09127 36.108H4.77704V29.3939C4.77712 29.0714 4.86113 28.7544 5.0208 28.4741C5.18047 28.1939 5.41031 27.96 5.68774 27.7955L9.37926 25.6124V22.1982" stroke="#4D2C19" stroke-width="0.936934" stroke-miterlimit="10" stroke-linecap="round"/>
<path d="M11.5611 36.1077H13.8754V29.2775C13.8755 28.9903 13.8007 28.7081 13.6584 28.4587C13.5161 28.2092 13.3112 28.0012 13.064 27.8552L9.27313 25.6066V22.1924" stroke="#4D2C19" stroke-width="0.936934" stroke-miterlimit="10" stroke-linecap="round"/>
<path d="M26.6442 22.0146V29.5026" stroke="#4D2C19" stroke-width="0.936934" stroke-miterlimit="10"/>
<path d="M26.3351 36.1082C28.2807 36.1082 29.8579 34.531 29.8579 32.5854C29.8579 30.6397 28.2807 29.0625 26.3351 29.0625C24.3894 29.0625 22.8122 30.6397 22.8122 32.5854C22.8122 34.531 24.3894 36.1082 26.3351 36.1082Z" stroke="#4D2C19" stroke-width="0.936934" stroke-miterlimit="10"/>
<path d="M33.7687 37.0974V30.7131C33.7252 29.4438 33.4921 28.1882 33.0773 26.9879C31.6738 23.0659 28.7449 22.3032 28.2989 22.1982H21.6917L18.2419 28.0204V38.7464" stroke="#4D2C19" stroke-width="0.936934" stroke-miterlimit="10" stroke-linecap="round"/>
<path d="M16.6193 28.0204L13.0308 22.1982H6.21185C5.84832 22.2357 2.6871 22.6405 1.18613 26.4557C0.738004 27.6479 0.495335 28.9075 0.468445 30.1809V37.0974" stroke="#4D2C19" stroke-width="0.936934" stroke-miterlimit="10" stroke-linecap="round"/>
</svg>
