<svg width="38" height="40" viewBox="0 0 38 40" fill="none" xmlns="http://www.w3.org/2000/svg">
<path d="M31.4785 16.1775C31.2518 17.0076 30.8118 18.6177 30.3751 20.2212C30.2522 20.6408 30.0961 21.0499 29.9084 21.4447C29.0649 23.2882 28.9283 25.235 28.8583 27.2052C28.7616 29.9288 28.4016 32.6223 27.3348 35.2059C27.1129 35.7416 26.8311 36.2505 26.4947 36.7227C25.0312 38.7863 22.161 38.873 20.6642 36.8194C20.0662 35.9164 19.6045 34.9301 19.294 33.8925C18.8206 32.5057 18.514 31.0655 18.0973 29.6621C17.9516 29.199 17.743 28.7582 17.4772 28.352C16.6571 27.0819 14.9636 26.9418 14.0735 28.1686C13.476 29.0714 12.9997 30.0487 12.6567 31.0755C12.0133 32.769 11.4799 34.5025 10.8599 36.206C10.6942 36.5916 10.4618 36.9448 10.1732 37.2494C9.89685 37.5881 9.55041 37.8628 9.15771 38.0547C8.76501 38.2465 8.33538 38.3509 7.89844 38.3608C7.46149 38.3706 7.02759 38.2856 6.62667 38.1115C6.22574 37.9375 5.86732 37.6787 5.57607 37.3528C4.52136 36.1989 3.82622 34.7622 3.57588 33.2191C3.13781 30.9807 2.82837 28.719 2.64912 26.4451C2.54807 24.8036 2.22166 23.1838 1.67904 21.6313C1.01231 19.7978 0.345577 17.9376 0.0755513 16.0375C-0.377825 12.7605 1.25233 10.2369 4.11593 8.4201C5.73609 7.39001 7.56624 7.51667 9.36975 7.99339C10.2932 8.23341 11.2099 8.49011 12.11 8.79347C14.3753 9.57813 16.8365 9.59219 19.1107 8.83347C20.2441 8.47344 21.4042 8.16676 22.5677 7.8934C23.5869 7.63393 24.654 7.62703 25.6764 7.87334C26.6988 8.11965 27.6457 8.61174 28.4349 9.30686C30.4384 10.967 31.4885 13.0105 31.4785 16.1775Z" fill="white"/>
<path d="M14.5462 7.177C15.2334 7.33235 15.9034 7.5557 16.5464 7.84373C17.3086 8.20556 18.0381 8.63274 18.7266 9.1205C19.57 9.63055 20.9701 10.0739 23.3637 9.63723" stroke="#4D2C19" stroke-width="1.66682" stroke-miterlimit="10" stroke-linecap="round"/>
<path d="M33.1459 14.8277C32.9192 15.7211 32.4792 17.4513 32.0425 19.1614C31.9212 19.6172 31.7652 20.063 31.5757 20.4949C30.7323 22.4951 30.5957 24.572 30.5257 26.6955C30.429 29.6224 30.0689 32.5227 29.0022 35.283C28.7826 35.8555 28.5009 36.4021 28.1621 36.9131C26.6986 39.1366 23.8283 39.2267 22.3315 37.0198C21.7293 36.0392 21.2681 34.9787 20.9614 33.8695C20.488 32.376 20.1814 30.8292 19.7646 29.3157C19.6203 28.8217 19.4119 28.3487 19.1446 27.9089C18.3245 26.5421 16.631 26.3921 15.7409 27.7122C15.1404 28.6916 14.6645 29.742 14.3241 30.8392C13.6807 32.6627 13.1473 34.5262 12.5273 36.3564C12.3646 36.7676 12.1323 37.1476 11.8406 37.4798C10.5971 39.0333 8.55692 39.0866 7.24346 37.5932C6.17637 36.3255 5.48372 34.7855 5.24327 33.1461C4.80496 30.7352 4.49559 28.3026 4.31651 25.8588C4.21679 24.0975 3.89075 22.3563 3.34642 20.6783C2.67969 18.7047 2.01297 16.7012 1.74294 14.6577C1.28956 11.134 2.91972 8.41711 5.78332 6.4636C7.40347 5.35683 9.23363 5.49351 11.0371 6.00355C11.9606 6.26358 12.8773 6.53696 13.7774 6.86366C16.0317 7.70925 18.5134 7.72457 20.778 6.90696C21.9115 6.52026 23.0716 6.18689 24.2351 5.90687C26.452 5.35348 28.3988 5.90689 30.1023 7.42703C32.1058 9.22053 33.1559 11.414 33.1459 14.8277Z" stroke="#4D2C19" stroke-width="1.36" stroke-miterlimit="10" stroke-linecap="round"/>
<path d="M36.684 8.33604V5.9158C36.684 4.54854 36.684 3.8649 36.3471 3.41887C36.0102 2.97285 35.2485 2.75631 33.725 2.32324C32.6841 2.02736 31.7665 1.67089 31.0335 1.34547C30.0339 0.901779 29.5342 0.679932 29.1807 0.679932C28.8272 0.679932 28.3275 0.901779 27.328 1.34547C26.5949 1.67089 25.6774 2.02735 24.6365 2.32324C23.113 2.75631 22.3512 2.97285 22.0143 3.41887C21.6774 3.8649 21.6774 4.54854 21.6774 5.9158V8.33604C21.6774 13.0258 25.8983 15.8395 28.0085 16.9532C28.5147 17.2204 28.7677 17.3539 29.1807 17.3539C29.5937 17.3539 29.8468 17.2204 30.3529 16.9532C32.4632 15.8395 36.684 13.0258 36.684 8.33604Z" fill="white" stroke="#4D2C19" stroke-width="1.36" stroke-linecap="round"/>
<path d="M26.6796 9.85067C26.6796 9.85067 27.5133 9.85067 28.347 11.5181C28.347 11.5181 30.9953 7.34957 33.3492 6.51587" stroke="#4D2C19" stroke-width="1.36" stroke-linecap="round" stroke-linejoin="round"/>
</svg>
