<svg width="43" height="40" viewBox="0 0 43 40" fill="none" xmlns="http://www.w3.org/2000/svg">
<path d="M22.0106 26.5009C22.0111 28.745 21.3231 30.9352 20.0395 32.7759C18.7558 34.6165 16.9383 36.0191 14.8324 36.7941C12.7264 37.5692 10.4333 37.6795 8.26269 37.1101C6.09206 36.5407 4.14839 35.319 2.69404 33.61C1.23876 31.2635 0.722269 28.4544 1.24774 25.7437C1.7732 23.0331 3.30194 20.6204 5.5286 18.9876C7.75526 17.3549 10.5159 16.6223 13.2592 16.9361C16.0024 17.2499 18.5263 18.587 20.3267 20.6804C21.4271 22.4223 22.011 24.4406 22.0106 26.5009Z" fill="white"/>
<path d="M5.64551 28.4805C6.43921 31.5245 9.24674 33.557 12.2068 33.3516C13.5133 33.2422 14.7544 32.7334 15.7618 31.8942C16.7691 31.0551 17.4938 29.9262 17.8374 28.661" stroke="#4D2C19" stroke-width="1.55628" stroke-miterlimit="10" stroke-linecap="round"/>
<path d="M41.5276 26.1303C41.5281 28.3744 40.8401 30.5646 39.5564 32.4052C38.2728 34.2459 36.4553 35.6484 34.3493 36.4235C32.2434 37.1985 29.9503 37.3088 27.7797 36.7394C25.6091 36.17 23.6654 34.9484 22.211 33.2394C20.7369 30.8919 20.2065 28.0732 20.7266 25.3504C21.2468 22.6277 22.7788 20.203 25.0144 18.5642C27.25 16.9253 30.0233 16.1939 32.7764 16.5173C35.5295 16.8406 38.0579 18.1945 39.853 20.3067C40.9507 22.0505 41.5314 24.0698 41.5276 26.1303Z" fill="white"/>
<path d="M25.1638 28.1006C25.9543 31.1478 28.765 33.1802 31.7219 32.9748C33.024 32.8639 34.2609 32.3571 35.2663 31.5225C36.2718 30.6878 36.9977 29.5654 37.3463 28.306" stroke="#4D2C19" stroke-width="1.55628" stroke-miterlimit="10" stroke-linecap="round"/>
<path d="M32.8557 11.8843C32.8554 14.1277 32.1671 16.317 30.8836 18.1569C29.6001 19.9968 27.7832 21.3987 25.678 22.1736C23.5727 22.9486 21.2804 23.0591 19.1103 22.4904C16.9403 21.9218 14.9968 20.7012 13.5422 18.9934C12.0804 16.6459 11.5595 13.8327 12.084 11.1174C12.6085 8.40207 14.1396 5.98523 16.3705 4.35099C18.6015 2.71674 21.3675 1.98578 24.1146 2.30457C26.8617 2.62337 29.3868 3.96834 31.1842 6.07007C32.2791 7.81148 32.8586 9.82732 32.8557 11.8843Z" fill="white"/>
<path d="M32.1799 11.7441C32.179 14.3179 31.2726 16.8094 29.6193 18.782C27.9661 20.7547 25.6714 22.0827 23.1374 22.5335C20.6033 22.9842 17.9915 22.529 15.7594 21.2475C13.5272 19.9661 11.8172 17.94 10.9288 15.5244C10.0403 13.1088 10.0302 10.4576 10.9002 8.03522C11.7701 5.61288 13.4647 3.57389 15.6869 2.27541C17.9092 0.976925 20.5175 0.501776 23.0549 0.933194C25.5924 1.36461 27.8971 2.67509 29.5653 4.63505C31.2539 6.61881 32.1808 9.13903 32.1799 11.7441Z" stroke="#4D2C19" stroke-width="1.55628" stroke-miterlimit="10"/>
<path d="M15.1224 12.1177C15.9161 15.1649 18.7267 17.1973 21.6837 16.9919C22.9891 16.8787 24.2284 16.3676 25.2342 15.5277C26.24 14.6877 26.9639 13.5594 27.3081 12.2951" stroke="#4D2C19" stroke-width="1.55628" stroke-miterlimit="10" stroke-linecap="round"/>
<path d="M22.703 28.0974C22.7029 30.6714 21.7971 33.1632 20.1442 35.1364C18.4914 37.1095 16.1969 38.4382 13.6628 38.8895C11.1287 39.3408 8.51665 38.8861 6.28418 37.6049C4.05171 36.3238 2.34124 34.2979 1.45243 31.8823C0.56363 29.4667 0.553181 26.8153 1.42292 24.3928C2.29265 21.9702 3.9871 19.9309 6.20941 18.6322C8.43171 17.3335 11.0401 16.8582 13.5777 17.2896C16.1153 17.7209 18.4201 19.0314 20.0885 20.9915C21.7761 22.9746 22.7029 25.4935 22.703 28.0974Z" stroke="#4D2C19" stroke-width="1.55628" stroke-miterlimit="10"/>
<path d="M41.9072 27.7268C41.9063 30.3006 40.9999 32.7921 39.3466 34.7647C37.6934 36.7373 35.3987 38.0654 32.8647 38.5161C30.3306 38.9669 27.7188 38.5117 25.4867 37.2302C23.2545 35.9487 21.5445 33.9227 20.6561 31.5071C19.7676 29.0915 19.7575 26.4403 20.6275 24.0179C21.4974 21.5956 23.192 19.5566 25.4142 18.2581C27.6365 16.9596 30.2448 16.4844 32.7822 16.9159C35.3197 17.3473 37.6244 18.6578 39.2926 20.6177C40.9809 22.6016 41.9078 25.1217 41.9072 27.7268Z" stroke="#4D2C19" stroke-width="1.55628" stroke-miterlimit="10"/>
</svg>
