<svg width="29" height="40" viewBox="0 0 29 40" fill="none" xmlns="http://www.w3.org/2000/svg">
<path opacity="0.5" d="M20.9495 14.0435H6.18521C5.82833 14.0435 5.53902 14.333 5.53902 14.6901V16.3054C5.53902 16.6625 5.82833 16.9521 6.18521 16.9521H20.9495C21.3064 16.9521 21.5957 16.6625 21.5957 16.3054V14.6901C21.5957 14.333 21.3064 14.0435 20.9495 14.0435Z" fill="white"/>
<path opacity="0.5" d="M20.4039 14.0435H6.86382C6.50694 14.0435 6.21762 14.333 6.21762 14.6901V16.3054C6.21762 16.6625 6.50694 16.9521 6.86382 16.9521H20.4039C20.7608 16.9521 21.0501 16.6625 21.0501 16.3054V14.6901C21.0501 14.333 20.7608 14.0435 20.4039 14.0435Z" fill="#FFE5B3"/>
<path opacity="0.5" d="M17.3747 34.9168C17.3317 35.0343 17.2779 35.1475 17.2139 35.2551C17.0503 35.5297 16.8441 35.7765 16.6031 35.9863L15.0381 37.4052C14.6443 37.7627 14.1316 37.9608 13.5998 37.9608C13.0681 37.9608 12.5554 37.7627 12.1616 37.4052C11.7744 37.0559 11.389 36.7048 11.0055 36.352C10.5983 36.0226 10.2506 35.6258 9.9776 35.1787C9.63742 34.4992 9.5128 33.7319 9.62042 32.9795C9.72949 31.8717 9.75129 27.9427 9.72675 22.1446C9.72675 21.6452 9.72675 21.1296 9.72675 20.603C9.72675 19.4652 9.72676 18.2646 9.70222 17.0095H17.5492C17.5492 17.5971 17.5492 18.1719 17.5492 18.7339C17.5492 18.9549 17.5492 19.1732 17.5492 19.3888C17.5247 27.3015 17.5302 32.6166 17.5956 33.2551C17.6458 33.8185 17.5704 34.3861 17.3747 34.9168Z" fill="#FFE5B3"/>
<path d="M19.0461 31.2769L11.2591 35.225" stroke="#4D2C19" stroke-width="1.36426" stroke-miterlimit="10"/>
<path d="M22.0481 14.3164H8.35808C7.70455 14.3164 7.17476 14.8466 7.17476 15.5006V16.0408C7.17476 16.6948 7.70455 17.225 8.35808 17.225H22.0481C22.7017 17.225 23.2315 16.6948 23.2315 16.0408V15.5006C23.2315 14.8466 22.7017 14.3164 22.0481 14.3164Z" stroke="#4D2C19" stroke-width="1.36426" stroke-miterlimit="10"/>
<path opacity="0.5" d="M25.4732 14.0028H1.2368C-0.126478 7.78722 -0.808123 3.69991 1.58852 1.68354C3.28989 0.251067 6.24821 0.120108 8.32585 0.840435C11.0142 1.77086 11.3823 3.80907 13.3809 3.78997C15.3794 3.77087 15.5621 1.80906 18.4332 0.840435C20.1291 0.267447 22.6921 0.136489 24.3307 1.26064C27.2127 3.24154 26.4793 8.59759 25.4732 14.0028Z" fill="white"/>
<path d="M27.1088 14.2755H2.8724C1.50913 8.05993 0.827481 3.97261 3.22412 1.95624C4.9255 0.523772 7.88382 0.392813 9.96145 1.11314C12.6498 2.04356 13.0179 4.08178 15.0165 4.06268C17.0151 4.04358 17.1977 2.08176 20.0688 1.11314C21.7647 0.540152 24.3277 0.409195 25.9663 1.53334C28.8483 3.51424 28.1149 8.8703 27.1088 14.2755Z" stroke="#4D2C19" stroke-width="1.36426" stroke-miterlimit="10"/>
<path d="M13.1189 3.26611C15.1789 4.79866 17.7177 5.54555 20.2788 5.37252" stroke="#4D2C19" stroke-width="1.36426" stroke-miterlimit="10" stroke-linecap="round"/>
<path d="M19.012 35.1895C18.9689 35.307 18.9151 35.4203 18.8511 35.5278C18.6875 35.8024 18.4814 36.0493 18.2403 36.2591L16.3318 37.9862C16.031 38.2585 15.6399 38.4092 15.2343 38.4092C14.8288 38.4092 14.4376 38.2585 14.1369 37.9862C13.6379 37.5306 13.1362 37.0776 12.64 36.622C12.2328 36.2927 11.8851 35.8958 11.6121 35.4487C11.2719 34.7692 11.1473 34.0019 11.2549 33.2495C11.364 32.1418 11.3858 28.2127 11.3612 22.4146C11.3612 21.9153 11.3612 21.3996 11.3612 20.873C11.3612 19.7352 11.3476 18.5347 11.3367 17.2795H19.1837C19.1837 17.8671 19.1837 18.4419 19.1837 19.004C19.1837 19.225 19.1837 19.4432 19.1837 19.6588C19.1592 27.5715 19.1646 32.8866 19.2301 33.5251C19.2816 34.0892 19.2071 34.6578 19.012 35.1895Z" stroke="#4D2C19" stroke-width="1.36426" stroke-miterlimit="10"/>
<path d="M19.0461 20.2837L11.2591 24.2346" stroke="#4D2C19" stroke-width="1.36426" stroke-miterlimit="10"/>
<path d="M15.6954 17.1294L11.1387 19.6627" stroke="#4D2C19" stroke-width="1.36426" stroke-miterlimit="10"/>
<path d="M19.0461 26.1174L11.2591 30.0656" stroke="#4D2C19" stroke-width="1.36426" stroke-miterlimit="10"/>
</svg>
