<svg width="31" height="31" viewBox="0 0 31 31" fill="none" xmlns="http://www.w3.org/2000/svg">
<path d="M29.8401 9.25253V21.3639C29.8392 21.5245 29.7749 21.6781 29.6611 21.7914C29.5472 21.9046 29.3932 21.9682 29.2326 21.9682H22.582C22.4212 21.969 22.2671 22.0333 22.1534 22.147C22.0397 22.2608 21.9754 22.4148 21.9746 22.5757V29.2137C21.9746 29.2935 21.9589 29.3725 21.9283 29.4462C21.8978 29.5199 21.8531 29.5868 21.7967 29.6432C21.7402 29.6997 21.6733 29.7444 21.5996 29.7749C21.5259 29.8055 21.4469 29.8211 21.3671 29.8211H9.24951C9.16974 29.8211 9.09074 29.8055 9.01704 29.7749C8.94334 29.7444 8.87639 29.6997 8.81998 29.6432C8.76358 29.5868 8.71884 29.5199 8.68831 29.4462C8.65778 29.3725 8.64206 29.2935 8.64206 29.2137V22.5757C8.64222 22.467 8.61327 22.3604 8.5582 22.2667C8.50313 22.1731 8.42396 22.096 8.32894 22.0433C8.23942 21.995 8.13948 21.9692 8.03775 21.9682H1.39028C1.22972 21.9682 1.07568 21.9046 0.961851 21.7914C0.848022 21.6781 0.783665 21.5245 0.782837 21.3639V9.25253C0.782836 9.17291 0.798559 9.09408 0.829124 9.02056C0.859689 8.94704 0.904486 8.88026 0.960934 8.8241C1.01738 8.76794 1.08436 8.72349 1.15805 8.6933C1.23173 8.66312 1.31066 8.64779 1.39028 8.6482H8.04088C8.12065 8.6482 8.19963 8.63252 8.27333 8.60199C8.34703 8.57146 8.414 8.52672 8.4704 8.47031C8.52681 8.41391 8.57155 8.34694 8.60208 8.27324C8.63261 8.19954 8.64833 8.12054 8.64833 8.04077V1.38705C8.64916 1.22648 8.71351 1.07277 8.82734 0.959531C8.94117 0.846289 9.09521 0.782713 9.25577 0.782715H21.3671C21.5277 0.782713 21.6817 0.846289 21.7955 0.959531C21.9094 1.07277 21.9737 1.22648 21.9746 1.38705V8.04077C21.9746 8.12054 21.9903 8.19954 22.0208 8.27324C22.0513 8.34694 22.0961 8.41391 22.1525 8.47031C22.2089 8.52672 22.2759 8.57146 22.3496 8.60199C22.4233 8.63252 22.5023 8.6482 22.582 8.6482H29.2326C29.3122 8.64779 29.3912 8.66312 29.4648 8.6933C29.5385 8.72349 29.6055 8.76794 29.6619 8.8241C29.7184 8.88026 29.7632 8.94704 29.7938 9.02056C29.8243 9.09408 29.8401 9.17291 29.8401 9.25253Z" stroke="#4D2C19" stroke-width="1.56558" stroke-miterlimit="10"/>
</svg>
